<svg xmlns="http://www.w3.org/2000/svg" version="1.1" xmlns:xlink="http://www.w3.org/1999/xlink" xmlns:svgjs="http://svgjs.dev/svgjs" width="1000" height="1000" viewBox="0 0 1000 1000"><rect width="1000" height="1000" fill="#ffffff"></rect><g transform="matrix(0.7,0,0,0.7,149.57575757575756,447.424316701204)"><svg viewBox="0 0 396 60" data-background-color="#ffffff" preserveAspectRatio="xMidYMid meet" height="151" width="1000" xmlns="http://www.w3.org/2000/svg" xmlns:xlink="http://www.w3.org/1999/xlink"><g id="tight-bounds" transform="matrix(1,0,0,1,0.2400000000000091,-0.15571430531920782)"><svg viewBox="0 0 395.52 60.3114286106384" height="60.3114286106384" width="395.52"><g><svg viewBox="0 0 481.480936095865 73.41930396624473" height="60.3114286106384" width="395.52"><g transform="matrix(1,0,0,1,0,10.146951561181439)"><svg viewBox="0 0 395.52 53.12540084388185" height="53.12540084388185" width="395.52"><g id="textblocktransform"><svg viewBox="0 0 395.52 53.12540084388185" height="53.12540084388185" width="395.52" id="textblock"><g><svg viewBox="0 0 395.52 53.12540084388185" height="53.12540084388185" width="395.52"><g transform="matrix(1,0,0,1,0,0)"><svg width="395.52" viewBox="1.95 -37.5 284.38 38.2" height="53.12540084388185" data-palette-color="#1c4b82"><path d="M19.6 0.7L19.6 0.7Q14.5 0.7 10.51-1.54 6.53-3.78 4.24-7.86 1.95-11.95 1.95-17.5L1.95-17.5Q1.95-23.05 4.26-27.14 6.58-31.23 10.61-33.46 14.65-35.7 19.8-35.7L19.8-35.7Q22.48-35.7 24.9-35.13 27.33-34.55 29.15-33.65L29.15-33.65 28.65-29.25Q26.78-30.15 24.53-30.78 22.28-31.4 19.75-31.4L19.75-31.4Q15.63-31.4 12.83-29.54 10.03-27.68 8.59-24.53 7.15-21.38 7.15-17.5L7.15-17.5Q7.15-13.63 8.56-10.48 9.98-7.33 12.76-5.46 15.55-3.6 19.65-3.6L19.65-3.6Q22.25-3.6 24.46-4.16 26.68-4.73 28.65-5.7L28.65-5.7 29.15-1.3Q27.28-0.45 24.93 0.13 22.58 0.7 19.6 0.7ZM39.55 0.5L39.55 0.5Q37.27 0.5 35.57-0.43 33.87-1.35 32.94-2.95 32-4.55 32-6.6L32-6.6Q32-8.68 32.91-10.16 33.82-11.65 35.36-12.64 36.9-13.63 38.8-14.21 40.7-14.8 42.73-15.06 44.77-15.33 46.65-15.35L46.65-15.35Q46.65-18.85 45.27-19.93 43.9-21 41.3-21L41.3-21Q39.92-21 38.36-20.58 36.8-20.15 34.85-18.8L34.85-18.8 34.2-22.45Q35.67-23.58 37.87-24.29 40.07-25 42.5-25L42.5-25Q45.6-25 47.5-23.91 49.4-22.83 50.27-20.25 51.15-17.68 51.15-13.25L51.15-13.25 51.15-8.25Q51.15-6.5 51.31-5.36 51.47-4.23 52.06-3.66 52.65-3.1 53.95-3.1L53.95-3.1 54.4-3.1 53.7 0.5 53.35 0.5Q51.17 0.5 49.98 0.08 48.8-0.35 48.17-1.15 47.55-1.95 47.05-3.1L47.05-3.1Q45.67-1.5 43.8-0.5 41.92 0.5 39.55 0.5ZM40.4-3.1L40.4-3.1Q42.2-3.1 43.88-4 45.57-4.9 46.65-6.4L46.65-6.4 46.65-12.25Q43.07-12.13 40.86-11.55 38.65-10.98 37.62-9.83 36.6-8.68 36.6-6.85L36.6-6.85Q36.6-4.88 37.66-3.99 38.72-3.1 40.4-3.1ZM62.34 0L57.84 0 57.84-24.5 61.34-24.5 62.25-19.8 60.55-20.6Q62.84-23.08 65.02-24.04 67.2-25 69.59-25L69.59-25Q71.4-25 73.06-24.41 74.72-23.83 76.06-22.36 77.4-20.9 78.2-18.3L78.2-18.3 76.95-18.85Q78.05-21.7 80.32-23.35 82.59-25 86.45-25L86.45-25Q89.52-25 91.62-23.86 93.72-22.73 94.78-20.39 95.84-18.05 95.84-14.45L95.84-14.45 95.84 0 91.34 0 91.34-14.4Q91.34-17.85 90-19.43 88.65-21 85.59-21L85.59-21Q83.45-21 82.15-20.34 80.84-19.68 80.18-18.63 79.52-17.57 79.31-16.4 79.09-15.23 79.09-14.2L79.09-14.2 79.09 0 74.59 0 74.59-13.5Q74.59-16.5 73.87-18.13 73.15-19.75 71.84-20.38 70.55-21 68.84-21L68.84-21Q66.37-21 64.42-19.91 62.47-18.82 61.8-16.45L61.8-16.45 62.34-18.9 62.34 0ZM113.44 0.5L113.44 0.5Q109.12 0.5 106.17-1.28 103.22-3.05 101.71-5.99 100.19-8.93 100.19-12.45L100.19-12.45Q100.19-15.88 101.61-18.73 103.02-21.58 105.71-23.29 108.39-25 112.19-25L112.19-25Q115.24-25 117.63-23.79 120.02-22.58 121.38-20.26 122.74-17.95 122.74-14.65L122.74-14.65Q122.74-14.13 122.71-13.51 122.67-12.9 122.54-12.25L122.54-12.25 104.79-12.25Q105.12-8.85 106.42-6.95 107.72-5.05 109.69-4.28 111.67-3.5 113.99-3.5L113.99-3.5Q115.69-3.5 117.54-3.85 119.39-4.2 121.04-4.95L121.04-4.95 121.64-1.4Q120.22-0.78 118.17-0.14 116.12 0.5 113.44 0.5ZM105.19-15.35L105.19-15.35 118.09-15.35Q118.09-17.07 117.44-18.35 116.79-19.63 115.47-20.31 114.14-21 112.09-21L112.09-21Q109.09-21 107.48-19.51 105.87-18.03 105.19-15.35ZM132.09 0L127.29 0 127.29-24.5 130.99-24.5 131.54-20.45Q133.42-22.78 135.13-23.89 136.84-25 138.79-25L138.79-25Q139.42-25 139.94-24.85L139.94-24.85 139.49-19.9Q139.17-19.98 138.8-20.01 138.44-20.05 137.99-20.05L137.99-20.05Q136.04-20.05 134.4-19.19 132.77-18.32 132.09-17.3L132.09-17.3 132.09 0ZM148.44 0.5L148.44 0.5Q146.16 0.5 144.46-0.43 142.76-1.35 141.83-2.95 140.89-4.55 140.89-6.6L140.89-6.6Q140.89-8.68 141.8-10.16 142.71-11.65 144.25-12.64 145.79-13.63 147.69-14.21 149.59-14.8 151.63-15.06 153.66-15.33 155.54-15.35L155.54-15.35Q155.54-18.85 154.16-19.93 152.79-21 150.19-21L150.19-21Q148.81-21 147.25-20.58 145.69-20.15 143.74-18.8L143.74-18.8 143.09-22.45Q144.56-23.58 146.76-24.29 148.96-25 151.39-25L151.39-25Q154.49-25 156.39-23.91 158.29-22.83 159.16-20.25 160.04-17.68 160.04-13.25L160.04-13.25 160.04-8.25Q160.04-6.5 160.2-5.36 160.36-4.23 160.95-3.66 161.54-3.1 162.84-3.1L162.84-3.1 163.29-3.1 162.59 0.5 162.24 0.5Q160.06 0.5 158.88 0.08 157.69-0.35 157.06-1.15 156.44-1.95 155.94-3.1L155.94-3.1Q154.56-1.5 152.69-0.5 150.81 0.5 148.44 0.5ZM149.29-3.1L149.29-3.1Q151.09-3.1 152.78-4 154.46-4.9 155.54-6.4L155.54-6.4 155.54-12.25Q151.96-12.13 149.75-11.55 147.54-10.98 146.51-9.83 145.49-8.68 145.49-6.85L145.49-6.85Q145.49-4.88 146.55-3.99 147.61-3.1 149.29-3.1ZM176.54 0L171.49 0 161.59-35 166.59-35 173.99-6.15 182.54-34.3 187.54-34.3 196.09-6.15 203.49-35 208.49-35 198.59 0 193.54 0 185.04-28.15 176.54 0ZM220.48 0.5L220.48 0.5Q216.63 0.5 213.92-1.21 211.21-2.93 209.77-5.81 208.33-8.7 208.33-12.25L208.33-12.25Q208.33-15.8 209.77-18.69 211.21-21.58 213.92-23.29 216.63-25 220.48-25L220.48-25Q224.31-25 227.03-23.29 229.76-21.58 231.2-18.69 232.63-15.8 232.63-12.25L232.63-12.25Q232.63-8.7 231.2-5.81 229.76-2.93 227.03-1.21 224.31 0.5 220.48 0.5ZM220.48-3.5L220.48-3.5Q224.13-3.5 226.08-5.81 228.03-8.13 228.03-12.25L228.03-12.25Q228.03-16.38 226.08-18.69 224.13-21 220.48-21L220.48-21Q216.86-21 214.9-18.69 212.93-16.38 212.93-12.25L212.93-12.25Q212.93-8.13 214.9-5.81 216.86-3.5 220.48-3.5ZM242.08 0L237.28 0 237.28-24.5 240.98-24.5 241.53-20.45Q243.41-22.78 245.12-23.89 246.83-25 248.78-25L248.78-25Q249.41-25 249.93-24.85L249.93-24.85 249.48-19.9Q249.16-19.98 248.79-20.01 248.43-20.05 247.98-20.05L247.98-20.05Q246.03-20.05 244.39-19.19 242.76-18.32 242.08-17.3L242.08-17.3 242.08 0ZM260.83 0.5L259.38 0.5Q257 0.5 255.62-0.36 254.23-1.23 253.63-2.58 253.03-3.93 253.03-5.4L253.03-5.4 253.03-37.5 257.53-37.5 257.53-8Q257.53-5.9 257.8-4.85 258.08-3.8 258.92-3.45 259.75-3.1 261.48-3.1L261.48-3.1 260.83 0.5ZM274.33 0.5L274.33 0.5Q271.2 0.5 268.68-1.2 266.15-2.9 264.66-5.78 263.18-8.65 263.18-12.2L263.18-12.2Q263.18-15.58 264.54-18.5 265.9-21.43 268.4-23.21 270.9-25 274.33-25L274.33-25Q276.78-25 279.06-23.94 281.35-22.88 282.78-20.4L282.78-20.4 281.83-19.75 281.83-37.5 286.33-37.5 286.33 0 282.33 0 281.48-5.2 282.63-4.4Q281.55-1.98 279.25-0.74 276.95 0.5 274.33 0.5ZM275.13-3.5L275.13-3.5Q276.83-3.5 278.49-4.38 280.15-5.25 281.24-7.16 282.33-9.08 282.33-12.2L282.33-12.2Q282.33-15.1 281.24-17.06 280.15-19.03 278.49-20.01 276.83-21 275.13-21L275.13-21Q272.83-21 271.18-19.85 269.53-18.7 268.65-16.71 267.78-14.73 267.78-12.2L267.78-12.2Q267.78-9.83 268.65-7.85 269.53-5.88 271.18-4.69 272.83-3.5 275.13-3.5Z" opacity="1" transform="matrix(1,0,0,1,0,0)" fill="#1c4b82" class="wordmark-text-0" data-fill-palette-color="primary" id="text-0"></path></svg></g></svg></g></svg></g></svg></g><g transform="matrix(1,0,0,1,408.06163212962025,0)"><svg viewBox="0 0 73.41930396624473 73.41930396624473" height="73.41930396624473" width="73.41930396624473"><g data-palette-color="#1c4b82"><rect width="20.06794308410689" height="73.41930396624473" fill="#1c4b82" stroke="transparent" data-fill-palette-color="accent" x="0" fill-opacity="1"></rect><rect width="20.06794308410689" height="73.41930396624473" fill="#1c4b82" stroke="transparent" data-fill-palette-color="accent" x="24.473101322081575" fill-opacity="0.75"></rect><rect width="20.06794308410689" height="73.41930396624473" fill="#1c4b82" stroke="transparent" data-fill-palette-color="accent" x="48.94620264416315" fill-opacity="0.5"></rect></g></svg></g></svg></g><defs></defs></svg><rect width="395.52" height="60.3114286106384" fill="none" stroke="none" visibility="hidden"></rect></g></svg></g></svg>